<?xml version="1.0" standalone="no"?>
<!DOCTYPE svg PUBLIC "-//W3C//DTD SVG 20010904//EN"
 "http://www.w3.org/TR/2001/REC-SVG-20010904/DTD/svg10.dtd">
<svg version="1.0" xmlns="http://www.w3.org/2000/svg"
 width="260.000000pt" height="260.000000pt" viewBox="0 0 260.000000 260.000000"
 preserveAspectRatio="xMidYMid meet">
<metadata>
Created by potrace 1.14, written by Peter Selinger 2001-2017
</metadata>
<g transform="translate(0.000000,260.000000) scale(0.100000,-0.100000)"
fill="#000000" stroke="none">
<path d="M1360 1864 l0 -175 270 3 c149 2 270 2 270 0 0 -4 -439 -903 -486
-995 -20 -38 -33 -71 -30 -74 4 -4 314 -7 402 -4 15 1 28 14 42 44 11 23 82
168 157 322 252 515 357 729 432 885 42 85 77 158 79 161 2 4 -253 7 -566 7
l-570 0 0 -174z"/>
<path d="M609 1990 c-233 -74 -366 -242 -373 -475 -9 -257 221 -471 502 -467
80 1 128 13 180 44 38 23 40 17 17 -59 -18 -62 -71 -118 -123 -133 -102 -28
-221 3 -305 79 -15 13 -27 21 -27 15 0 -5 -13 -22 -28 -39 -15 -16 -56 -64
-91 -105 -36 -41 -68 -76 -73 -78 -46 -19 127 -144 252 -183 87 -27 232 -34
316 -14 189 44 324 176 392 385 37 113 46 181 47 345 0 172 -10 244 -50 360
-42 121 -137 240 -232 288 -115 59 -286 74 -404 37z m215 -310 c31 -12 77 -56
96 -93 7 -15 13 -50 13 -77 -3 -172 -225 -227 -313 -77 -49 83 -5 210 85 248
28 11 89 11 119 -1z"/>
</g>
</svg>
